<?xml version="1.0" encoding="utf-8"?>
<!-- Generator: Adobe Illustrator 15.0.0, SVG Export Plug-In . SVG Version: 6.00 Build 0)  -->
<!DOCTYPE svg PUBLIC "-//W3C//DTD SVG 1.1//EN" "http://www.w3.org/Graphics/SVG/1.1/DTD/svg11.dtd">
<svg version="1.1" xmlns="http://www.w3.org/2000/svg" xmlns:xlink="http://www.w3.org/1999/xlink" x="0px" y="0px"
	 width="453.64px" height="195.924px" viewBox="0 0 453.64 195.924" enable-background="new 0 0 453.64 195.924"
	 xml:space="preserve">
<g id="VISUS_TextPfad_EN">
	<g>
		<path fill="#889398" d="M10.094,160.027H7.068L0,140.169h3.053l5.638,16.97l5.941-16.97h2.778L10.094,160.027z"/>
		<path fill="#889398" d="M19.17,140.169h3.108v2.833H19.17V140.169z M19.445,146.22h2.585v13.807h-2.585V146.22z"/>
		<path fill="#889398" d="M28.274,155.929c0,0.257,0.036,0.532,0.11,0.825c0.073,0.293,0.224,0.564,0.454,0.811
			c0.229,0.248,0.541,0.454,0.935,0.619c0.395,0.165,0.903,0.247,1.527,0.247c0.531,0,0.999-0.059,1.402-0.179
			c0.403-0.118,0.743-0.353,1.018-0.701c0.293-0.385,0.44-0.815,0.44-1.292c0-0.33-0.06-0.605-0.179-0.825
			c-0.12-0.22-0.303-0.399-0.55-0.536c-0.248-0.138-0.564-0.261-0.949-0.372c-0.385-0.11-0.834-0.22-1.348-0.33
			c-0.715-0.165-1.398-0.339-2.049-0.522c-0.651-0.183-1.215-0.421-1.691-0.715c-0.477-0.293-0.857-0.669-1.142-1.128
			c-0.284-0.458-0.426-1.045-0.426-1.76c0-0.623,0.133-1.196,0.399-1.719c0.266-0.523,0.633-0.963,1.1-1.32
			c0.468-0.357,1.032-0.637,1.691-0.839c0.66-0.202,1.394-0.303,2.201-0.303c0.44,0,0.908,0.037,1.402,0.11
			c0.495,0.073,0.972,0.192,1.431,0.357c0.458,0.165,0.88,0.385,1.265,0.66c0.385,0.275,0.678,0.614,0.88,1.018
			c0.183,0.385,0.289,0.743,0.316,1.073s0.041,0.642,0.041,0.935h-2.64c0.018-0.513-0.064-0.921-0.248-1.224
			c-0.184-0.302-0.417-0.531-0.701-0.688c-0.285-0.156-0.583-0.252-0.894-0.289c-0.312-0.037-0.587-0.055-0.825-0.055
			c-0.092,0-0.289,0.009-0.591,0.027c-0.303,0.019-0.619,0.092-0.949,0.22c-0.33,0.128-0.624,0.326-0.88,0.591
			c-0.257,0.266-0.385,0.646-0.385,1.142c0,0.312,0.068,0.573,0.206,0.784c0.138,0.211,0.307,0.381,0.509,0.509
			c0.202,0.128,0.413,0.225,0.633,0.289c0.22,0.064,0.421,0.124,0.605,0.179c0.953,0.22,1.737,0.408,2.352,0.563
			c0.614,0.156,1.118,0.303,1.513,0.44c0.394,0.137,0.71,0.275,0.949,0.413c0.238,0.137,0.458,0.298,0.66,0.481
			c0.385,0.367,0.655,0.775,0.812,1.224c0.155,0.449,0.234,0.894,0.234,1.334c0,0.77-0.184,1.467-0.55,2.09
			c-0.367,0.624-0.807,1.092-1.32,1.403c-0.605,0.367-1.261,0.614-1.966,0.742c-0.706,0.128-1.417,0.192-2.132,0.192
			c-0.697,0-1.371-0.078-2.021-0.233s-1.229-0.408-1.732-0.757c-0.505-0.348-0.903-0.811-1.197-1.389
			c-0.293-0.577-0.44-1.279-0.44-2.104H28.274z"/>
		<path fill="#889398" d="M42.631,146.22v8.884c0,0.33,0.027,0.679,0.083,1.045s0.188,0.697,0.399,0.99
			c0.21,0.293,0.509,0.536,0.894,0.729c0.385,0.192,0.907,0.289,1.567,0.289c0.642,0,1.251-0.119,1.829-0.357
			s1.049-0.633,1.417-1.183c0.293-0.421,0.463-0.871,0.509-1.348c0.045-0.477,0.069-0.889,0.069-1.238v-7.811h2.668v11.222
			c0,0.073,0.004,0.211,0.014,0.412c0.009,0.202,0.018,0.431,0.027,0.688s0.018,0.522,0.027,0.798s0.014,0.505,0.014,0.688h-2.696
			l-0.055-2.365c-0.128,0.238-0.289,0.505-0.481,0.798s-0.454,0.563-0.784,0.811c-0.33,0.248-0.752,0.459-1.265,0.633
			c-0.514,0.174-1.137,0.262-1.871,0.262c-0.862,0-1.604-0.115-2.228-0.344c-0.624-0.229-1.142-0.551-1.554-0.963
			s-0.72-0.907-0.921-1.485c-0.202-0.578-0.302-1.205-0.302-1.884v-9.269H42.631z"/>
		<path fill="#889398" d="M65.211,160.027c-0.092-0.348-0.156-0.688-0.192-1.018c-0.037-0.33-0.055-0.678-0.055-1.045
			c-0.312,0.568-0.656,1.018-1.031,1.348c-0.376,0.33-0.756,0.582-1.142,0.756c-0.385,0.174-0.756,0.284-1.114,0.33
			s-0.683,0.069-0.977,0.069c-0.789,0-1.485-0.106-2.09-0.316c-0.605-0.211-1.114-0.5-1.527-0.866
			c-0.413-0.367-0.725-0.798-0.935-1.293c-0.211-0.495-0.316-1.027-0.316-1.595c0-0.275,0.032-0.587,0.097-0.935
			c0.064-0.348,0.183-0.702,0.357-1.059c0.174-0.357,0.417-0.715,0.729-1.073c0.312-0.357,0.724-0.683,1.237-0.977
			c0.367-0.201,0.77-0.362,1.21-0.481c0.44-0.119,0.88-0.211,1.32-0.275c0.44-0.064,0.857-0.105,1.251-0.124
			c0.394-0.018,0.729-0.027,1.004-0.027c0.33,0,0.624,0.004,0.88,0.014c0.256,0.009,0.586,0.032,0.99,0.069
			c0-0.422-0.005-0.793-0.014-1.114c-0.01-0.32-0.028-0.596-0.055-0.825c-0.027-0.229-0.074-0.435-0.138-0.619
			c-0.064-0.183-0.161-0.348-0.289-0.495c-0.257-0.348-0.628-0.586-1.114-0.715s-0.912-0.193-1.279-0.193
			c-0.66,0-1.173,0.097-1.54,0.289c-0.367,0.192-0.642,0.417-0.825,0.674c-0.184,0.257-0.298,0.518-0.344,0.784
			c-0.046,0.266-0.069,0.463-0.069,0.591h-2.585c0.037-0.367,0.105-0.774,0.207-1.224c0.101-0.449,0.353-0.912,0.756-1.389
			c0.256-0.293,0.568-0.536,0.935-0.729c0.367-0.192,0.747-0.344,1.141-0.454c0.395-0.11,0.798-0.188,1.21-0.234
			c0.413-0.045,0.802-0.069,1.169-0.069c0.495,0,0.994,0.042,1.499,0.124c0.504,0.083,0.976,0.206,1.417,0.371
			c0.44,0.165,0.834,0.376,1.183,0.633c0.348,0.257,0.614,0.56,0.797,0.908c0.22,0.422,0.353,0.802,0.399,1.141
			c0.045,0.34,0.069,0.665,0.069,0.977l-0.11,6.601c0,0.055,0.004,0.202,0.014,0.44c0.009,0.238,0.018,0.522,0.027,0.853
			s0.027,0.688,0.055,1.072c0.027,0.386,0.069,0.753,0.124,1.101H65.211z M64.221,153.247c-0.22-0.009-0.486-0.014-0.797-0.014
			c-0.257,0-0.66,0.014-1.21,0.041c-0.55,0.028-1.105,0.129-1.664,0.303c-0.56,0.174-1.05,0.454-1.472,0.839
			s-0.632,0.926-0.632,1.623c0,0.22,0.041,0.468,0.124,0.743c0.083,0.275,0.229,0.537,0.44,0.784c0.211,0.248,0.5,0.454,0.867,0.619
			c0.366,0.165,0.843,0.247,1.43,0.247c1.32,0,2.301-0.494,2.943-1.485c0.146-0.238,0.261-0.467,0.344-0.688
			s0.142-0.468,0.179-0.743c0.037-0.275,0.064-0.591,0.083-0.949c0.018-0.357,0.037-0.774,0.055-1.251
			C64.67,153.279,64.441,153.256,64.221,153.247z"/>
		<path fill="#889398" d="M71.868,140.169h2.585v19.858h-2.585V140.169z"/>
		<path fill="#889398" d="M78.936,140.169h3.108v2.833h-3.108V140.169z M79.211,146.22h2.585v13.807h-2.585V146.22z"/>
		<path fill="#889398" d="M84.959,157.359l7.371-9.186h-6.986v-1.953h9.929v2.201l-7.619,9.599h7.619v2.008H84.959V157.359z"/>
		<path fill="#889398" d="M106.907,160.027c-0.092-0.348-0.156-0.688-0.192-1.018c-0.037-0.33-0.055-0.678-0.055-1.045
			c-0.312,0.568-0.656,1.018-1.031,1.348c-0.376,0.33-0.756,0.582-1.142,0.756c-0.385,0.174-0.756,0.284-1.114,0.33
			s-0.683,0.069-0.977,0.069c-0.789,0-1.485-0.106-2.09-0.316c-0.605-0.211-1.114-0.5-1.527-0.866
			c-0.413-0.367-0.725-0.798-0.935-1.293c-0.211-0.495-0.316-1.027-0.316-1.595c0-0.275,0.032-0.587,0.097-0.935
			c0.064-0.348,0.183-0.702,0.357-1.059c0.174-0.357,0.417-0.715,0.729-1.073c0.312-0.357,0.724-0.683,1.237-0.977
			c0.367-0.201,0.77-0.362,1.21-0.481c0.44-0.119,0.88-0.211,1.32-0.275c0.44-0.064,0.857-0.105,1.251-0.124
			c0.394-0.018,0.729-0.027,1.004-0.027c0.33,0,0.624,0.004,0.88,0.014c0.256,0.009,0.586,0.032,0.99,0.069
			c0-0.422-0.005-0.793-0.014-1.114c-0.01-0.32-0.028-0.596-0.055-0.825c-0.027-0.229-0.074-0.435-0.138-0.619
			c-0.064-0.183-0.161-0.348-0.289-0.495c-0.257-0.348-0.628-0.586-1.114-0.715s-0.912-0.193-1.279-0.193
			c-0.66,0-1.173,0.097-1.54,0.289c-0.367,0.192-0.642,0.417-0.825,0.674c-0.184,0.257-0.298,0.518-0.344,0.784
			c-0.046,0.266-0.069,0.463-0.069,0.591h-2.585c0.037-0.367,0.105-0.774,0.207-1.224c0.101-0.449,0.353-0.912,0.756-1.389
			c0.256-0.293,0.568-0.536,0.935-0.729c0.367-0.192,0.747-0.344,1.141-0.454c0.395-0.11,0.798-0.188,1.21-0.234
			c0.413-0.045,0.802-0.069,1.169-0.069c0.495,0,0.994,0.042,1.499,0.124c0.504,0.083,0.976,0.206,1.417,0.371
			c0.44,0.165,0.834,0.376,1.183,0.633c0.348,0.257,0.614,0.56,0.797,0.908c0.22,0.422,0.353,0.802,0.399,1.141
			c0.045,0.34,0.069,0.665,0.069,0.977l-0.11,6.601c0,0.055,0.004,0.202,0.014,0.44c0.009,0.238,0.018,0.522,0.027,0.853
			s0.027,0.688,0.055,1.072c0.027,0.386,0.069,0.753,0.124,1.101H106.907z M105.917,153.247c-0.22-0.009-0.486-0.014-0.797-0.014
			c-0.257,0-0.66,0.014-1.21,0.041c-0.55,0.028-1.105,0.129-1.664,0.303c-0.56,0.174-1.05,0.454-1.472,0.839
			s-0.632,0.926-0.632,1.623c0,0.22,0.041,0.468,0.124,0.743c0.083,0.275,0.229,0.537,0.44,0.784c0.211,0.248,0.5,0.454,0.867,0.619
			c0.366,0.165,0.843,0.247,1.43,0.247c1.32,0,2.301-0.494,2.943-1.485c0.146-0.238,0.261-0.467,0.344-0.688
			s0.142-0.468,0.179-0.743c0.037-0.275,0.064-0.591,0.083-0.949c0.018-0.357,0.037-0.774,0.055-1.251
			C106.366,153.279,106.137,153.256,105.917,153.247z"/>
		<path fill="#889398" d="M111.39,146.22h2.448v-2.888l2.558-0.825v3.713h3.081v1.898h-3.081v8.233c0,0.164,0.009,0.356,0.028,0.575
			c0.018,0.219,0.086,0.419,0.206,0.602c0.119,0.183,0.303,0.337,0.55,0.465s0.6,0.191,1.059,0.191c0.257,0,0.5-0.014,0.729-0.041
			c0.229-0.027,0.399-0.06,0.509-0.097v2.008c-0.238,0.037-0.536,0.073-0.894,0.11c-0.357,0.036-0.774,0.055-1.251,0.055
			c-1.192,0-2.072-0.205-2.64-0.615c-0.568-0.411-0.853-1.183-0.853-2.314v-9.172h-2.448V146.22z"/>
		<path fill="#889398" d="M122.144,140.169h3.108v2.833h-3.108V140.169z M122.419,146.22h2.585v13.807h-2.585V146.22z"/>
		<path fill="#889398" d="M129.075,150.703c0.22-0.88,0.6-1.678,1.141-2.393c0.541-0.715,1.261-1.302,2.159-1.76
			c0.898-0.458,2.026-0.688,3.383-0.688c1.375,0,2.503,0.243,3.383,0.729c0.88,0.486,1.572,1.091,2.077,1.815
			c0.504,0.725,0.848,1.509,1.031,2.352c0.183,0.844,0.275,1.623,0.275,2.338c0,1.009-0.142,1.962-0.426,2.86
			c-0.285,0.899-0.715,1.683-1.292,2.352s-1.307,1.201-2.187,1.595c-0.88,0.395-1.907,0.592-3.081,0.592
			c-1.137,0-2.132-0.188-2.984-0.564c-0.853-0.375-1.563-0.884-2.131-1.526c-0.569-0.642-0.99-1.402-1.265-2.283
			c-0.275-0.88-0.413-1.824-0.413-2.833C128.745,152.445,128.855,151.583,129.075,150.703z M131.728,155.172
			c0.155,0.651,0.401,1.229,0.738,1.733s0.765,0.908,1.284,1.21c0.519,0.302,1.143,0.453,1.872,0.453
			c0.492,0,0.983-0.096,1.475-0.288c0.492-0.193,0.934-0.505,1.326-0.936c0.391-0.431,0.714-0.999,0.97-1.705
			c0.255-0.706,0.382-1.582,0.382-2.627c0-1.723-0.364-3.03-1.093-3.919c-0.729-0.889-1.694-1.334-2.896-1.334
			c-0.419,0-0.875,0.078-1.367,0.233c-0.492,0.156-0.956,0.431-1.393,0.825c-0.438,0.395-0.802,0.94-1.093,1.637
			c-0.292,0.697-0.437,1.586-0.437,2.668C131.496,153.838,131.573,154.522,131.728,155.172z"/>
		<path fill="#889398" d="M146.375,147.815l-0.027-1.595h2.585l0.028,2.228c0.073-0.146,0.197-0.357,0.371-0.633
			c0.174-0.275,0.431-0.55,0.77-0.825c0.339-0.275,0.774-0.518,1.307-0.729c0.532-0.21,1.191-0.316,1.98-0.316
			c0.312,0,0.747,0.046,1.306,0.138c0.559,0.092,1.114,0.298,1.664,0.619s1.027,0.793,1.43,1.417
			c0.403,0.624,0.605,1.467,0.605,2.53v9.379h-2.64v-8.774c0-0.458-0.046-0.889-0.138-1.292s-0.293-0.761-0.605-1.073
			c-0.33-0.312-0.711-0.545-1.142-0.701s-0.866-0.234-1.306-0.234c-0.477,0-0.931,0.083-1.362,0.248s-0.811,0.422-1.141,0.77
			c-0.33,0.349-0.596,0.78-0.798,1.293s-0.302,1.118-0.302,1.815v7.949h-2.585V147.815z"/>
		<path fill="#889398" d="M170.138,140.169h7.096c0.256,0,0.568,0.005,0.935,0.014c0.367,0.01,0.761,0.042,1.183,0.096
			c0.422,0.055,0.843,0.147,1.265,0.275s0.816,0.312,1.183,0.55c0.752,0.477,1.307,1.068,1.664,1.774
			c0.357,0.706,0.537,1.462,0.537,2.269c0,0.697-0.124,1.348-0.371,1.953c-0.247,0.605-0.59,1.127-1.029,1.567
			c-0.421,0.422-0.837,0.72-1.249,0.894c-0.412,0.174-0.772,0.307-1.084,0.399c0.476,0.128,0.887,0.285,1.235,0.467
			c0.347,0.184,0.64,0.417,0.878,0.702s0.43,0.642,0.576,1.073s0.256,0.958,0.33,1.582c0.073,0.587,0.141,1.137,0.205,1.65
			c0.064,0.514,0.142,1.018,0.233,1.513c0.092,0.496,0.197,0.995,0.316,1.5c0.119,0.504,0.279,1.031,0.481,1.581h-2.937
			c-0.11-0.33-0.21-0.72-0.302-1.169c-0.091-0.449-0.173-0.912-0.247-1.389c-0.073-0.477-0.137-0.949-0.192-1.417
			c-0.055-0.468-0.11-0.894-0.165-1.279c-0.092-0.715-0.211-1.311-0.357-1.788c-0.146-0.477-0.375-0.857-0.686-1.142
			c-0.311-0.284-0.731-0.485-1.262-0.605c-0.53-0.119-1.207-0.179-2.03-0.179h-3.457v8.966h-2.75V140.169z M172.806,148.695h4.346
			c0.073,0,0.21,0,0.413,0c0.22,0,0.463-0.013,0.729-0.041c0.265-0.027,0.531-0.072,0.797-0.136c0.266-0.063,0.49-0.149,0.674-0.258
			c0.092-0.054,0.215-0.14,0.371-0.258s0.307-0.281,0.454-0.489c0.146-0.208,0.271-0.457,0.371-0.746s0.151-0.643,0.151-1.059
			c0-0.796-0.156-1.407-0.467-1.832c-0.312-0.425-0.679-0.737-1.101-0.936c-0.422-0.199-0.857-0.317-1.306-0.353
			c-0.45-0.036-0.812-0.055-1.086-0.055h-4.346V148.695z"/>
		<path fill="#889398" d="M189.281,153.591c-0.019,0.715,0.045,1.375,0.192,1.98c0.146,0.605,0.38,1.132,0.701,1.582
			s0.733,0.798,1.238,1.045c0.504,0.248,1.114,0.371,1.829,0.371c0.843,0,1.568-0.229,2.173-0.688
			c0.605-0.458,0.962-1.183,1.073-2.173h2.585c-0.037,0.349-0.119,0.784-0.248,1.307s-0.44,1.05-0.935,1.581
			c-0.147,0.165-0.348,0.358-0.605,0.578s-0.578,0.422-0.962,0.605c-0.385,0.183-0.839,0.339-1.362,0.467
			c-0.522,0.128-1.132,0.192-1.829,0.192c-2.183,0-3.796-0.632-4.841-1.897c-1.045-1.265-1.568-2.988-1.568-5.17
			c0-1.357,0.183-2.59,0.55-3.7c0.366-1.109,1.09-2.04,2.173-2.792c0.33-0.238,0.674-0.421,1.031-0.55s0.706-0.229,1.045-0.303
			s0.656-0.119,0.949-0.138c0.293-0.018,0.541-0.027,0.743-0.027c1.026,0,1.893,0.138,2.599,0.413
			c0.706,0.275,1.279,0.637,1.719,1.086c0.44,0.45,0.779,0.954,1.018,1.513c0.238,0.56,0.408,1.127,0.509,1.705
			c0.101,0.578,0.151,1.132,0.151,1.664c0,0.532,0,0.981,0,1.348H189.281z M196.569,151.776c0-0.33-0.028-0.729-0.083-1.197
			c-0.055-0.467-0.197-0.912-0.427-1.334c-0.229-0.421-0.573-0.784-1.031-1.086c-0.458-0.302-1.082-0.454-1.87-0.454
			c-0.422,0-0.853,0.069-1.293,0.206c-0.44,0.138-0.839,0.367-1.196,0.688s-0.656,0.738-0.894,1.251s-0.367,1.155-0.385,1.925
			H196.569z"/>
		<path fill="#889398" d="M204.215,155.929c0,0.257,0.036,0.532,0.11,0.825c0.073,0.293,0.224,0.564,0.454,0.811
			c0.229,0.248,0.541,0.454,0.935,0.619c0.395,0.165,0.903,0.247,1.527,0.247c0.531,0,0.999-0.059,1.402-0.179
			c0.403-0.118,0.743-0.353,1.018-0.701c0.293-0.385,0.44-0.815,0.44-1.292c0-0.33-0.06-0.605-0.179-0.825
			c-0.12-0.22-0.303-0.399-0.55-0.536c-0.248-0.138-0.564-0.261-0.949-0.372c-0.385-0.11-0.834-0.22-1.348-0.33
			c-0.715-0.165-1.398-0.339-2.049-0.522c-0.651-0.183-1.215-0.421-1.691-0.715c-0.477-0.293-0.857-0.669-1.142-1.128
			c-0.284-0.458-0.426-1.045-0.426-1.76c0-0.623,0.133-1.196,0.399-1.719c0.266-0.523,0.633-0.963,1.1-1.32
			c0.468-0.357,1.032-0.637,1.691-0.839c0.66-0.202,1.394-0.303,2.201-0.303c0.44,0,0.908,0.037,1.402,0.11
			c0.495,0.073,0.972,0.192,1.431,0.357c0.458,0.165,0.88,0.385,1.265,0.66c0.385,0.275,0.678,0.614,0.88,1.018
			c0.183,0.385,0.289,0.743,0.316,1.073s0.041,0.642,0.041,0.935h-2.64c0.018-0.513-0.064-0.921-0.248-1.224
			c-0.184-0.302-0.417-0.531-0.701-0.688c-0.285-0.156-0.583-0.252-0.894-0.289c-0.312-0.037-0.587-0.055-0.825-0.055
			c-0.092,0-0.289,0.009-0.591,0.027c-0.303,0.019-0.619,0.092-0.949,0.22c-0.33,0.128-0.624,0.326-0.88,0.591
			c-0.257,0.266-0.385,0.646-0.385,1.142c0,0.312,0.068,0.573,0.206,0.784c0.138,0.211,0.307,0.381,0.509,0.509
			c0.202,0.128,0.413,0.225,0.633,0.289c0.22,0.064,0.421,0.124,0.605,0.179c0.953,0.22,1.737,0.408,2.352,0.563
			c0.614,0.156,1.118,0.303,1.513,0.44c0.394,0.137,0.71,0.275,0.949,0.413c0.238,0.137,0.458,0.298,0.66,0.481
			c0.385,0.367,0.655,0.775,0.812,1.224c0.155,0.449,0.234,0.894,0.234,1.334c0,0.77-0.184,1.467-0.55,2.09
			c-0.367,0.624-0.807,1.092-1.32,1.403c-0.605,0.367-1.261,0.614-1.966,0.742c-0.706,0.128-1.417,0.192-2.132,0.192
			c-0.697,0-1.371-0.078-2.021-0.233s-1.229-0.408-1.732-0.757c-0.505-0.348-0.903-0.811-1.197-1.389
			c-0.293-0.577-0.44-1.279-0.44-2.104H204.215z"/>
		<path fill="#889398" d="M217.775,153.591c-0.019,0.715,0.045,1.375,0.192,1.98c0.146,0.605,0.38,1.132,0.701,1.582
			s0.733,0.798,1.238,1.045c0.504,0.248,1.114,0.371,1.829,0.371c0.843,0,1.568-0.229,2.173-0.688
			c0.605-0.458,0.962-1.183,1.073-2.173h2.585c-0.037,0.349-0.119,0.784-0.248,1.307s-0.44,1.05-0.935,1.581
			c-0.147,0.165-0.348,0.358-0.605,0.578s-0.578,0.422-0.962,0.605c-0.385,0.183-0.839,0.339-1.362,0.467
			c-0.522,0.128-1.132,0.192-1.829,0.192c-2.183,0-3.796-0.632-4.841-1.897c-1.045-1.265-1.568-2.988-1.568-5.17
			c0-1.357,0.183-2.59,0.55-3.7c0.366-1.109,1.09-2.04,2.173-2.792c0.33-0.238,0.674-0.421,1.031-0.55s0.706-0.229,1.045-0.303
			s0.656-0.119,0.949-0.138c0.293-0.018,0.541-0.027,0.743-0.027c1.026,0,1.893,0.138,2.599,0.413
			c0.706,0.275,1.279,0.637,1.719,1.086c0.44,0.45,0.779,0.954,1.018,1.513c0.238,0.56,0.408,1.127,0.509,1.705
			c0.101,0.578,0.151,1.132,0.151,1.664c0,0.532,0,0.981,0,1.348H217.775z M225.063,151.776c0-0.33-0.028-0.729-0.083-1.197
			c-0.055-0.467-0.197-0.912-0.427-1.334c-0.229-0.421-0.573-0.784-1.031-1.086c-0.458-0.302-1.082-0.454-1.87-0.454
			c-0.422,0-0.853,0.069-1.293,0.206c-0.44,0.138-0.839,0.367-1.196,0.688s-0.656,0.738-0.894,1.251s-0.367,1.155-0.385,1.925
			H225.063z"/>
		<path fill="#889398" d="M239.64,160.027c-0.092-0.348-0.156-0.688-0.192-1.018c-0.037-0.33-0.055-0.678-0.055-1.045
			c-0.312,0.568-0.656,1.018-1.031,1.348c-0.376,0.33-0.756,0.582-1.142,0.756c-0.385,0.174-0.756,0.284-1.114,0.33
			s-0.683,0.069-0.977,0.069c-0.789,0-1.485-0.106-2.09-0.316c-0.605-0.211-1.114-0.5-1.527-0.866
			c-0.413-0.367-0.725-0.798-0.935-1.293c-0.211-0.495-0.316-1.027-0.316-1.595c0-0.275,0.032-0.587,0.097-0.935
			c0.064-0.348,0.183-0.702,0.357-1.059c0.174-0.357,0.417-0.715,0.729-1.073c0.312-0.357,0.724-0.683,1.237-0.977
			c0.367-0.201,0.77-0.362,1.21-0.481c0.44-0.119,0.88-0.211,1.32-0.275c0.44-0.064,0.857-0.105,1.251-0.124
			c0.394-0.018,0.729-0.027,1.004-0.027c0.33,0,0.624,0.004,0.88,0.014c0.256,0.009,0.586,0.032,0.99,0.069
			c0-0.422-0.005-0.793-0.014-1.114c-0.01-0.32-0.028-0.596-0.055-0.825c-0.027-0.229-0.074-0.435-0.138-0.619
			c-0.064-0.183-0.161-0.348-0.289-0.495c-0.257-0.348-0.628-0.586-1.114-0.715s-0.912-0.193-1.279-0.193
			c-0.66,0-1.173,0.097-1.54,0.289c-0.367,0.192-0.642,0.417-0.825,0.674c-0.184,0.257-0.298,0.518-0.344,0.784
			c-0.046,0.266-0.069,0.463-0.069,0.591h-2.585c0.037-0.367,0.105-0.774,0.207-1.224c0.101-0.449,0.353-0.912,0.756-1.389
			c0.256-0.293,0.568-0.536,0.935-0.729c0.367-0.192,0.747-0.344,1.141-0.454c0.395-0.11,0.798-0.188,1.21-0.234
			c0.413-0.045,0.802-0.069,1.169-0.069c0.495,0,0.994,0.042,1.499,0.124c0.504,0.083,0.976,0.206,1.417,0.371
			c0.44,0.165,0.834,0.376,1.183,0.633c0.348,0.257,0.614,0.56,0.797,0.908c0.22,0.422,0.353,0.802,0.399,1.141
			c0.045,0.34,0.069,0.665,0.069,0.977l-0.11,6.601c0,0.055,0.004,0.202,0.014,0.44c0.009,0.238,0.018,0.522,0.027,0.853
			s0.027,0.688,0.055,1.072c0.027,0.386,0.069,0.753,0.124,1.101H239.64z M238.65,153.247c-0.22-0.009-0.486-0.014-0.797-0.014
			c-0.257,0-0.66,0.014-1.21,0.041c-0.55,0.028-1.105,0.129-1.664,0.303c-0.56,0.174-1.05,0.454-1.472,0.839
			s-0.632,0.926-0.632,1.623c0,0.22,0.041,0.468,0.124,0.743c0.083,0.275,0.229,0.537,0.44,0.784c0.211,0.248,0.5,0.454,0.867,0.619
			c0.366,0.165,0.843,0.247,1.43,0.247c1.32,0,2.301-0.494,2.943-1.485c0.146-0.238,0.261-0.467,0.344-0.688
			s0.142-0.468,0.179-0.743c0.037-0.275,0.064-0.591,0.083-0.949c0.018-0.357,0.037-0.774,0.055-1.251
			C239.099,153.279,238.87,153.256,238.65,153.247z"/>
		<path fill="#889398" d="M246.379,149.025c0-0.477-0.014-0.949-0.042-1.417c-0.027-0.468-0.06-0.931-0.096-1.389h2.613l0.055,2.668
			c0.128-0.477,0.316-0.88,0.563-1.21s0.527-0.601,0.839-0.812c0.312-0.21,0.633-0.371,0.963-0.481
			c0.33-0.11,0.642-0.183,0.935-0.22c0.385-0.055,0.724-0.083,1.018-0.083c0.293,0,0.55,0.009,0.77,0.027v2.53
			c-0.11-0.029-0.275-0.059-0.495-0.088c-0.092-0.015-0.202-0.022-0.33-0.022c-0.129,0-0.266,0-0.413,0
			c-0.771,0-1.398,0.105-1.884,0.315s-0.866,0.503-1.141,0.878c-0.275,0.375-0.468,0.819-0.578,1.331
			c-0.11,0.512-0.165,1.061-0.165,1.646v7.326h-2.613V149.025z"/>
		<path fill="#889398" d="M264.531,150.648c-0.019-0.165-0.055-0.408-0.11-0.729c-0.055-0.32-0.173-0.642-0.355-0.962
			c-0.183-0.321-0.452-0.601-0.808-0.839c-0.356-0.238-0.845-0.357-1.465-0.357c-0.895,0-1.584,0.22-2.068,0.66
			c-0.484,0.44-0.835,0.954-1.054,1.54c-0.219,0.587-0.347,1.169-0.383,1.747c-0.036,0.578-0.054,0.995-0.054,1.251
			c0,0.715,0.05,1.398,0.15,2.049c0.101,0.651,0.278,1.233,0.534,1.747c0.255,0.513,0.602,0.921,1.04,1.224
			c0.438,0.303,1.004,0.453,1.699,0.453c0.547,0,1.008-0.091,1.383-0.274c0.374-0.184,0.675-0.422,0.904-0.715
			c0.228-0.293,0.397-0.619,0.506-0.977c0.109-0.358,0.173-0.702,0.192-1.032h2.613c-0.037,0.679-0.188,1.316-0.454,1.912
			c-0.266,0.596-0.637,1.118-1.114,1.567c-0.477,0.45-1.055,0.808-1.733,1.073c-0.679,0.266-1.44,0.398-2.283,0.398
			c-0.239,0-0.541-0.019-0.908-0.055c-0.367-0.037-0.756-0.115-1.169-0.234c-0.413-0.118-0.834-0.298-1.265-0.536
			c-0.431-0.238-0.83-0.559-1.197-0.963c-0.202-0.237-0.403-0.513-0.605-0.824s-0.381-0.679-0.536-1.101
			c-0.156-0.421-0.28-0.908-0.372-1.458c-0.092-0.55-0.137-1.183-0.137-1.898c0-1.43,0.197-2.626,0.591-3.589
			c0.394-0.962,0.898-1.728,1.513-2.296c0.614-0.568,1.288-0.972,2.021-1.21c0.733-0.238,1.448-0.357,2.146-0.357
			c0.22,0,0.509,0.019,0.866,0.055s0.733,0.115,1.127,0.233c0.394,0.12,0.789,0.289,1.183,0.509c0.395,0.22,0.747,0.522,1.059,0.907
			c0.513,0.587,0.825,1.151,0.935,1.692c0.11,0.541,0.183,1.004,0.22,1.389H264.531z"/>
		<path fill="#889398" d="M268.767,140.169h2.613v8.086c0.421-0.733,1.031-1.297,1.829-1.692c0.797-0.394,1.682-0.591,2.654-0.591
			c0.366,0,0.76,0.037,1.183,0.11c0.421,0.073,0.834,0.192,1.237,0.357s0.774,0.39,1.114,0.674c0.339,0.285,0.609,0.637,0.811,1.059
			c0.073,0.147,0.138,0.298,0.193,0.454c0.055,0.156,0.1,0.357,0.137,0.605s0.068,0.546,0.096,0.894
			c0.027,0.349,0.041,0.77,0.041,1.265v8.636h-2.64v-8.168c0-0.312-0.014-0.688-0.041-1.128s-0.138-0.866-0.33-1.279
			s-0.491-0.766-0.894-1.059c-0.403-0.293-0.972-0.44-1.705-0.44c-0.477,0-0.898,0.064-1.265,0.192
			c-0.367,0.128-0.683,0.289-0.949,0.481c-0.266,0.192-0.481,0.395-0.646,0.605c-0.165,0.211-0.293,0.399-0.385,0.564
			c-0.22,0.385-0.348,0.862-0.385,1.43c-0.037,0.568-0.055,1.063-0.055,1.485v7.316h-2.613V140.169z"/>
		<path fill="#889398" d="M304.632,145.532c-0.037-0.165-0.102-0.44-0.191-0.825c-0.094-0.385-0.281-0.77-0.564-1.155
			c-0.285-0.385-0.707-0.724-1.266-1.018c-0.559-0.293-1.316-0.44-2.27-0.44c-1.191,0-2.158,0.271-2.9,0.812
			c-0.744,0.541-1.316,1.224-1.719,2.049c-0.404,0.825-0.674,1.715-0.813,2.668c-0.137,0.954-0.205,1.843-0.205,2.668
			c0,0.935,0.076,1.866,0.232,2.792c0.156,0.926,0.445,1.76,0.867,2.503s0.994,1.343,1.719,1.801
			c0.725,0.459,1.654,0.688,2.791,0.688c0.605,0,1.188-0.087,1.746-0.261c0.561-0.174,1.051-0.481,1.473-0.921
			c0.367-0.385,0.609-0.771,0.729-1.155c0.119-0.385,0.197-0.697,0.234-0.935h3.025c-0.111,0.972-0.398,1.806-0.867,2.503
			c-0.467,0.697-1.045,1.27-1.732,1.719s-1.453,0.779-2.297,0.99s-1.688,0.316-2.529,0.316c-1.742,0-3.16-0.339-4.25-1.018
			c-1.092-0.679-1.939-1.526-2.545-2.544c-0.604-1.018-1.012-2.104-1.223-3.259s-0.316-2.218-0.316-3.19
			c0-0.697,0.051-1.439,0.15-2.228c0.102-0.789,0.279-1.568,0.537-2.338c0.256-0.77,0.596-1.508,1.018-2.214
			c0.422-0.706,0.953-1.329,1.596-1.87c0.641-0.541,1.406-0.972,2.295-1.292c0.891-0.321,1.922-0.481,3.096-0.481
			c0.695,0,1.443,0.083,2.24,0.248c0.799,0.165,1.545,0.458,2.242,0.88c0.697,0.422,1.287,1,1.773,1.733s0.775,1.66,0.867,2.778
			H304.632z"/>
		<path fill="#889398" d="M312.306,153.591c-0.02,0.715,0.045,1.375,0.191,1.98s0.381,1.132,0.701,1.582s0.734,0.798,1.238,1.045
			c0.504,0.248,1.113,0.371,1.828,0.371c0.844,0,1.568-0.229,2.174-0.688c0.605-0.458,0.963-1.183,1.072-2.173h2.586
			c-0.037,0.349-0.119,0.784-0.248,1.307s-0.439,1.05-0.936,1.581c-0.146,0.165-0.348,0.358-0.604,0.578
			c-0.258,0.22-0.578,0.422-0.963,0.605c-0.387,0.183-0.84,0.339-1.361,0.467c-0.523,0.128-1.133,0.192-1.83,0.192
			c-2.182,0-3.795-0.632-4.84-1.897c-1.045-1.265-1.568-2.988-1.568-5.17c0-1.357,0.184-2.59,0.551-3.7
			c0.365-1.109,1.09-2.04,2.172-2.792c0.33-0.238,0.674-0.421,1.031-0.55s0.707-0.229,1.045-0.303
			c0.34-0.073,0.656-0.119,0.949-0.138c0.293-0.018,0.541-0.027,0.742-0.027c1.027,0,1.895,0.138,2.6,0.413s1.279,0.637,1.719,1.086
			c0.441,0.45,0.779,0.954,1.018,1.513c0.238,0.56,0.408,1.127,0.51,1.705c0.1,0.578,0.15,1.132,0.15,1.664c0,0.532,0,0.981,0,1.348
			H312.306z M319.593,151.776c0-0.33-0.027-0.729-0.082-1.197c-0.055-0.467-0.197-0.912-0.426-1.334
			c-0.23-0.421-0.574-0.784-1.031-1.086c-0.459-0.302-1.082-0.454-1.871-0.454c-0.422,0-0.852,0.069-1.293,0.206
			c-0.439,0.138-0.838,0.367-1.195,0.688s-0.656,0.738-0.895,1.251s-0.367,1.155-0.385,1.925H319.593z"/>
		<path fill="#889398" d="M325.837,147.815l-0.027-1.595h2.586l0.027,2.228c0.072-0.146,0.197-0.357,0.371-0.633
			c0.174-0.275,0.432-0.55,0.77-0.825c0.34-0.275,0.775-0.518,1.307-0.729c0.531-0.21,1.191-0.316,1.98-0.316
			c0.313,0,0.748,0.046,1.307,0.138s1.113,0.298,1.664,0.619s1.027,0.793,1.43,1.417c0.404,0.624,0.605,1.467,0.605,2.53v9.379
			h-2.641v-8.774c0-0.458-0.045-0.889-0.137-1.292s-0.295-0.761-0.605-1.073c-0.33-0.312-0.711-0.545-1.141-0.701
			c-0.432-0.156-0.867-0.234-1.307-0.234c-0.479,0-0.932,0.083-1.361,0.248c-0.432,0.165-0.813,0.422-1.143,0.77
			c-0.33,0.349-0.596,0.78-0.797,1.293c-0.203,0.513-0.303,1.118-0.303,1.815v7.949h-2.586V147.815z"/>
		<path fill="#889398" d="M340.167,146.22h2.447v-2.888l2.559-0.825v3.713h3.08v1.898h-3.08v8.233c0,0.164,0.008,0.356,0.027,0.575
			c0.018,0.219,0.086,0.419,0.205,0.602s0.303,0.337,0.551,0.465s0.6,0.191,1.059,0.191c0.256,0,0.5-0.014,0.729-0.041
			c0.23-0.027,0.398-0.06,0.51-0.097v2.008c-0.238,0.037-0.537,0.073-0.895,0.11c-0.357,0.036-0.775,0.055-1.252,0.055
			c-1.191,0-2.072-0.205-2.641-0.615c-0.568-0.411-0.852-1.183-0.852-2.314v-9.172h-2.447V146.22z"/>
		<path fill="#889398" d="M352.736,153.591c-0.018,0.715,0.045,1.375,0.193,1.98c0.146,0.605,0.379,1.132,0.701,1.582
			c0.32,0.449,0.732,0.798,1.238,1.045c0.504,0.248,1.113,0.371,1.828,0.371c0.844,0,1.568-0.229,2.172-0.688
			c0.605-0.458,0.963-1.183,1.074-2.173h2.584c-0.037,0.349-0.119,0.784-0.246,1.307c-0.129,0.522-0.441,1.05-0.936,1.581
			c-0.146,0.165-0.35,0.358-0.605,0.578c-0.258,0.22-0.578,0.422-0.963,0.605c-0.385,0.183-0.838,0.339-1.361,0.467
			c-0.521,0.128-1.133,0.192-1.828,0.192c-2.184,0-3.797-0.632-4.842-1.897c-1.045-1.265-1.566-2.988-1.566-5.17
			c0-1.357,0.182-2.59,0.549-3.7c0.367-1.109,1.092-2.04,2.174-2.792c0.33-0.238,0.674-0.421,1.031-0.55s0.705-0.229,1.045-0.303
			c0.338-0.073,0.654-0.119,0.949-0.138c0.293-0.018,0.539-0.027,0.742-0.027c1.027,0,1.893,0.138,2.6,0.413
			c0.705,0.275,1.277,0.637,1.719,1.086c0.439,0.45,0.779,0.954,1.018,1.513c0.238,0.56,0.408,1.127,0.508,1.705
			c0.102,0.578,0.152,1.132,0.152,1.664c0,0.532,0,0.981,0,1.348H352.736z M360.025,151.776c0-0.33-0.027-0.729-0.082-1.197
			c-0.057-0.467-0.197-0.912-0.428-1.334c-0.229-0.421-0.572-0.784-1.031-1.086c-0.457-0.302-1.082-0.454-1.869-0.454
			c-0.422,0-0.854,0.069-1.293,0.206c-0.439,0.138-0.84,0.367-1.197,0.688s-0.654,0.738-0.893,1.251s-0.367,1.155-0.387,1.925
			H360.025z"/>
		<path fill="#889398" d="M366.322,149.025c0-0.477-0.014-0.949-0.041-1.417c-0.027-0.468-0.059-0.931-0.096-1.389h2.613
			l0.055,2.668c0.127-0.477,0.316-0.88,0.564-1.21c0.246-0.33,0.525-0.601,0.838-0.812c0.313-0.21,0.633-0.371,0.963-0.481
			c0.33-0.11,0.641-0.183,0.936-0.22c0.385-0.055,0.725-0.083,1.018-0.083s0.549,0.009,0.77,0.027v2.53
			c-0.109-0.029-0.275-0.059-0.494-0.088c-0.092-0.015-0.203-0.022-0.33-0.022c-0.129,0-0.268,0-0.414,0
			c-0.77,0-1.398,0.105-1.883,0.315c-0.486,0.21-0.867,0.503-1.143,0.878c-0.273,0.375-0.467,0.819-0.576,1.331
			c-0.111,0.512-0.166,1.061-0.166,1.646v7.326h-2.613V149.025z"/>
		<path fill="#889398" d="M4.923,170.539v12.294c0,0.532,0.028,0.99,0.083,1.375c0.055,0.385,0.124,0.715,0.207,0.99
			s0.174,0.509,0.275,0.701c0.101,0.192,0.207,0.362,0.316,0.509c0.312,0.422,0.66,0.757,1.045,1.004
			c0.385,0.248,0.779,0.445,1.183,0.592s0.802,0.243,1.197,0.288c0.394,0.047,0.765,0.069,1.114,0.069
			c1.338,0,2.37-0.225,3.094-0.674c0.724-0.449,1.256-0.985,1.595-1.609c0.339-0.623,0.536-1.246,0.591-1.87
			c0.055-0.623,0.083-1.118,0.083-1.485v-12.184h2.668v12.239c0,0.274-0.01,0.609-0.028,1.004s-0.078,0.824-0.179,1.292
			c-0.101,0.468-0.261,0.959-0.481,1.472c-0.22,0.514-0.532,1.018-0.936,1.513c-0.495,0.605-1.036,1.091-1.623,1.458
			c-0.587,0.367-1.178,0.646-1.774,0.839c-0.596,0.192-1.16,0.316-1.691,0.371c-0.532,0.055-0.972,0.082-1.32,0.082
			c-0.477,0-1.022-0.041-1.637-0.123c-0.614-0.083-1.242-0.239-1.884-0.468c-0.642-0.229-1.27-0.55-1.884-0.963
			c-0.614-0.412-1.15-0.948-1.609-1.608c-0.147-0.221-0.289-0.463-0.426-0.729c-0.137-0.266-0.261-0.591-0.371-0.977
			c-0.11-0.385-0.197-0.843-0.261-1.375c-0.064-0.531-0.096-1.173-0.096-1.925v-12.102H4.923z"/>
		<path fill="#889398" d="M23.241,178.184l-0.027-1.595h2.585l0.028,2.228c0.073-0.146,0.197-0.357,0.371-0.633
			c0.174-0.274,0.431-0.55,0.77-0.825c0.339-0.274,0.774-0.518,1.307-0.729c0.532-0.211,1.192-0.316,1.98-0.316
			c0.312,0,0.747,0.046,1.306,0.138c0.559,0.092,1.114,0.298,1.664,0.619c0.55,0.32,1.027,0.793,1.43,1.416s0.605,1.467,0.605,2.53
			v9.379h-2.64v-8.773c0-0.458-0.046-0.89-0.138-1.293s-0.293-0.761-0.605-1.072c-0.33-0.312-0.711-0.546-1.142-0.702
			c-0.431-0.155-0.866-0.233-1.306-0.233c-0.477,0-0.931,0.082-1.362,0.247s-0.811,0.423-1.141,0.771
			c-0.33,0.349-0.596,0.779-0.798,1.293s-0.302,1.118-0.302,1.815v7.948h-2.585V178.184z"/>
		<path fill="#889398" d="M39.44,170.539h3.108v2.832H39.44V170.539z M39.715,176.589h2.585v13.807h-2.585V176.589z"/>
		<path fill="#889398" d="M45.519,176.589h2.888l4.401,10.946l4.291-10.946h2.86l-6.051,13.807h-2.613L45.519,176.589z"/>
		<path fill="#889398" d="M64.194,183.96c-0.019,0.715,0.045,1.375,0.192,1.979c0.146,0.605,0.38,1.133,0.701,1.582
			s0.733,0.798,1.238,1.045c0.504,0.248,1.114,0.371,1.829,0.371c0.843,0,1.568-0.229,2.173-0.688
			c0.605-0.458,0.962-1.183,1.073-2.173h2.585c-0.037,0.349-0.119,0.784-0.248,1.307s-0.44,1.05-0.935,1.581
			c-0.147,0.165-0.348,0.358-0.605,0.578s-0.578,0.422-0.962,0.605c-0.385,0.183-0.839,0.339-1.362,0.467
			c-0.522,0.128-1.132,0.192-1.829,0.192c-2.183,0-3.796-0.632-4.841-1.897c-1.045-1.265-1.568-2.988-1.568-5.171
			c0-1.356,0.183-2.59,0.55-3.699c0.366-1.109,1.09-2.039,2.173-2.791c0.33-0.238,0.674-0.422,1.031-0.551
			c0.357-0.128,0.706-0.229,1.045-0.303c0.339-0.072,0.656-0.118,0.949-0.137c0.293-0.019,0.541-0.027,0.743-0.027
			c1.026,0,1.893,0.137,2.599,0.412c0.706,0.275,1.279,0.638,1.719,1.086c0.44,0.45,0.779,0.954,1.018,1.513
			c0.238,0.56,0.408,1.128,0.509,1.706c0.101,0.577,0.151,1.132,0.151,1.664c0,0.531,0,0.98,0,1.348H64.194z M71.482,182.145
			c0-0.33-0.028-0.729-0.083-1.196c-0.055-0.468-0.197-0.912-0.427-1.334s-0.573-0.784-1.031-1.087
			c-0.458-0.303-1.082-0.454-1.87-0.454c-0.422,0-0.853,0.069-1.293,0.207c-0.44,0.138-0.839,0.367-1.196,0.688
			c-0.357,0.321-0.656,0.738-0.894,1.251c-0.238,0.514-0.367,1.155-0.385,1.926H71.482z"/>
		<path fill="#889398" d="M77.781,179.394c0-0.477-0.014-0.948-0.042-1.416s-0.06-0.931-0.096-1.389h2.613l0.055,2.668
			c0.128-0.477,0.316-0.881,0.563-1.211s0.527-0.6,0.839-0.812c0.312-0.21,0.633-0.371,0.963-0.48
			c0.33-0.11,0.642-0.184,0.935-0.221c0.385-0.055,0.724-0.082,1.018-0.082c0.293,0,0.55,0.01,0.77,0.027v2.53
			c-0.11-0.029-0.275-0.059-0.495-0.088c-0.092-0.015-0.202-0.022-0.33-0.022c-0.129,0-0.266,0-0.413,0
			c-0.771,0-1.398,0.105-1.884,0.315c-0.486,0.211-0.866,0.504-1.141,0.878c-0.275,0.376-0.468,0.819-0.578,1.331
			c-0.11,0.513-0.165,1.062-0.165,1.646v7.326h-2.613V179.394z"/>
		<path fill="#889398" d="M90.102,186.298c0,0.257,0.036,0.531,0.11,0.824c0.073,0.294,0.224,0.564,0.454,0.812
			c0.229,0.248,0.541,0.454,0.935,0.619c0.395,0.165,0.903,0.247,1.527,0.247c0.531,0,0.999-0.059,1.402-0.179
			c0.403-0.118,0.743-0.353,1.018-0.701c0.293-0.385,0.44-0.815,0.44-1.292c0-0.33-0.06-0.605-0.179-0.825
			c-0.12-0.221-0.303-0.399-0.55-0.537c-0.248-0.137-0.564-0.261-0.949-0.371c-0.385-0.109-0.834-0.22-1.348-0.33
			c-0.715-0.165-1.398-0.339-2.049-0.522c-0.651-0.183-1.215-0.422-1.691-0.715c-0.477-0.293-0.857-0.669-1.142-1.128
			c-0.284-0.458-0.426-1.045-0.426-1.76c0-0.623,0.133-1.197,0.399-1.72c0.266-0.522,0.633-0.962,1.1-1.32
			c0.468-0.357,1.032-0.637,1.691-0.839c0.66-0.201,1.394-0.302,2.201-0.302c0.44,0,0.908,0.037,1.402,0.109
			c0.495,0.074,0.972,0.192,1.431,0.357c0.458,0.165,0.88,0.386,1.265,0.66c0.385,0.275,0.678,0.615,0.88,1.018
			c0.183,0.386,0.289,0.743,0.316,1.073s0.041,0.642,0.041,0.935h-2.64c0.018-0.513-0.064-0.921-0.248-1.224
			c-0.184-0.303-0.417-0.531-0.701-0.688c-0.285-0.155-0.583-0.252-0.894-0.289c-0.312-0.036-0.587-0.055-0.825-0.055
			c-0.092,0-0.289,0.01-0.591,0.027c-0.303,0.019-0.619,0.092-0.949,0.22c-0.33,0.129-0.624,0.326-0.88,0.592
			s-0.385,0.646-0.385,1.142c0,0.312,0.068,0.573,0.206,0.783c0.138,0.212,0.307,0.381,0.509,0.51
			c0.202,0.128,0.413,0.225,0.633,0.288c0.22,0.064,0.421,0.124,0.605,0.179c0.953,0.221,1.737,0.408,2.352,0.564
			c0.614,0.155,1.118,0.302,1.513,0.439c0.394,0.138,0.71,0.275,0.949,0.413s0.458,0.298,0.66,0.481
			c0.385,0.366,0.655,0.774,0.812,1.224c0.155,0.449,0.234,0.894,0.234,1.334c0,0.77-0.184,1.467-0.55,2.09
			c-0.367,0.624-0.807,1.092-1.32,1.403c-0.605,0.367-1.261,0.614-1.966,0.742c-0.706,0.128-1.417,0.192-2.132,0.192
			c-0.697,0-1.371-0.078-2.021-0.233s-1.229-0.408-1.732-0.757c-0.505-0.348-0.903-0.811-1.197-1.389
			c-0.293-0.577-0.44-1.279-0.44-2.104H90.102z"/>
		<path fill="#889398" d="M101.846,170.539h3.108v2.832h-3.108V170.539z M102.121,176.589h2.585v13.807h-2.585V176.589z"/>
		<path fill="#889398" d="M107.347,176.589h2.448v-2.889l2.558-0.825v3.714h3.081v1.897h-3.081v8.233
			c0,0.164,0.009,0.356,0.028,0.575c0.018,0.219,0.086,0.419,0.206,0.602c0.119,0.183,0.303,0.337,0.55,0.465s0.6,0.191,1.059,0.191
			c0.257,0,0.5-0.014,0.729-0.041c0.229-0.027,0.399-0.06,0.509-0.097v2.008c-0.238,0.037-0.536,0.073-0.894,0.11
			c-0.357,0.036-0.774,0.055-1.251,0.055c-1.192,0-2.072-0.205-2.64-0.615c-0.568-0.411-0.853-1.183-0.853-2.314v-9.172h-2.448
			V176.589z"/>
		<path fill="#889398" d="M124.564,190.478l-1.98,5.144h-2.667l2.09-5.28l-5.749-13.752h2.916l4.318,10.892l4.401-10.892h2.805
			L124.564,190.478z"/>
		<path fill="#889398" d="M140.049,181.072c0.22-0.88,0.6-1.678,1.141-2.393c0.541-0.715,1.261-1.302,2.159-1.76
			s2.026-0.688,3.383-0.688c1.375,0,2.503,0.243,3.383,0.729c0.88,0.486,1.572,1.091,2.077,1.815
			c0.504,0.725,0.848,1.508,1.031,2.352c0.183,0.844,0.275,1.622,0.275,2.338c0,1.008-0.142,1.962-0.426,2.86
			c-0.285,0.898-0.715,1.683-1.292,2.352s-1.307,1.201-2.187,1.595c-0.88,0.395-1.907,0.592-3.081,0.592
			c-1.137,0-2.132-0.188-2.984-0.564c-0.853-0.375-1.563-0.884-2.131-1.526c-0.569-0.642-0.99-1.402-1.265-2.282
			c-0.275-0.881-0.413-1.824-0.413-2.833C139.719,182.814,139.829,181.953,140.049,181.072z M142.701,185.542
			c0.155,0.651,0.401,1.229,0.738,1.732c0.337,0.505,0.765,0.908,1.284,1.211c0.519,0.302,1.143,0.453,1.872,0.453
			c0.492,0,0.983-0.096,1.475-0.288c0.492-0.193,0.934-0.505,1.326-0.936c0.391-0.431,0.714-0.999,0.97-1.705
			c0.255-0.706,0.382-1.582,0.382-2.627c0-1.723-0.364-3.029-1.093-3.919c-0.729-0.89-1.694-1.334-2.896-1.334
			c-0.419,0-0.875,0.078-1.367,0.233c-0.492,0.156-0.956,0.432-1.393,0.825c-0.438,0.395-0.802,0.94-1.093,1.637
			c-0.292,0.697-0.437,1.586-0.437,2.668C142.469,184.208,142.546,184.891,142.701,185.542z"/>
		<path fill="#889398" d="M164.169,172.463c-0.22-0.018-0.463-0.032-0.729-0.041c-0.266-0.009-0.527-0.014-0.784-0.014
			c-0.532,0-0.935,0.06-1.21,0.179c-0.275,0.119-0.481,0.274-0.619,0.468c-0.137,0.192-0.215,0.408-0.233,0.646
			c-0.019,0.239-0.028,0.478-0.028,0.716v2.173h3.218v1.87h-3.218v11.937h-2.558v-11.937h-2.723v-1.87h2.723v-1.568
			c0-0.477,0.009-0.884,0.027-1.224c0.018-0.339,0.045-0.633,0.083-0.88c0.037-0.248,0.096-0.463,0.179-0.646
			s0.179-0.366,0.289-0.55c0.293-0.44,0.719-0.803,1.279-1.087c0.559-0.284,1.288-0.426,2.187-0.426
			c0.367,0,0.743,0.022,1.127,0.068c0.385,0.046,0.715,0.087,0.99,0.124V172.463z"/>
		<path fill="#889398" d="M175.501,184.565c0.018,0.349,0.064,0.747,0.137,1.196c0.073,0.45,0.261,0.876,0.564,1.279
			c0.302,0.403,0.774,0.747,1.417,1.031c0.642,0.284,1.531,0.427,2.668,0.427c1.026,0,1.847-0.138,2.461-0.412
			c0.614-0.274,1.082-0.604,1.403-0.988c0.32-0.385,0.531-0.774,0.632-1.168c0.101-0.394,0.151-0.718,0.151-0.975
			c0-0.55-0.105-1.002-0.316-1.359c-0.211-0.356-0.518-0.654-0.921-0.893s-0.885-0.439-1.444-0.604
			c-0.56-0.164-1.188-0.329-1.884-0.494c-0.752-0.183-1.408-0.348-1.967-0.494c-0.56-0.146-1.05-0.283-1.471-0.412
			c-0.422-0.128-0.789-0.261-1.101-0.398c-0.312-0.137-0.596-0.288-0.853-0.453c-0.807-0.549-1.352-1.171-1.636-1.867
			c-0.285-0.695-0.426-1.373-0.426-2.032c0-1.007,0.22-1.877,0.66-2.609c0.44-0.731,1.013-1.331,1.719-1.798
			c0.706-0.467,1.513-0.815,2.42-1.044s1.829-0.344,2.764-0.344c0.33,0,0.733,0.02,1.21,0.057c0.477,0.038,0.972,0.127,1.485,0.268
			c0.513,0.141,1.022,0.343,1.526,0.605s0.958,0.619,1.362,1.069c0.275,0.318,0.49,0.633,0.646,0.944s0.275,0.614,0.357,0.907
			c0.083,0.294,0.133,0.573,0.151,0.839c0.018,0.267,0.037,0.5,0.055,0.701h-2.86c-0.037-0.623-0.184-1.132-0.44-1.526
			c-0.257-0.394-0.583-0.701-0.977-0.921c-0.395-0.221-0.83-0.371-1.307-0.454c-0.477-0.082-0.962-0.124-1.458-0.124
			c-1.375,0-2.453,0.288-3.232,0.864s-1.169,1.357-1.169,2.345c0,0.438,0.073,0.813,0.22,1.124c0.146,0.312,0.367,0.576,0.66,0.796
			c0.293,0.219,0.665,0.406,1.114,0.562c0.449,0.156,0.977,0.307,1.582,0.452c1.173,0.312,2.118,0.558,2.833,0.74
			c0.715,0.184,1.288,0.344,1.719,0.48s0.774,0.27,1.032,0.397c0.256,0.128,0.531,0.283,0.825,0.466
			c0.458,0.312,0.82,0.649,1.086,1.015c0.265,0.366,0.462,0.731,0.591,1.098c0.128,0.365,0.21,0.713,0.248,1.042
			c0.036,0.329,0.055,0.594,0.055,0.795c0,0.877-0.169,1.69-0.509,2.44c-0.339,0.749-0.839,1.403-1.499,1.961
			s-1.481,0.992-2.461,1.303c-0.981,0.31-2.104,0.466-3.369,0.466c-0.385,0-0.849-0.023-1.389-0.07
			c-0.541-0.046-1.1-0.148-1.678-0.306s-1.142-0.39-1.691-0.695c-0.55-0.307-1.018-0.71-1.403-1.211
			c-0.275-0.367-0.491-0.738-0.646-1.114s-0.271-0.738-0.344-1.087c-0.073-0.348-0.119-0.678-0.137-0.99
			c-0.019-0.312-0.028-0.587-0.028-0.825H175.501z"/>
		<path fill="#889398" d="M189.473,176.589h2.448v-2.889l2.558-0.825v3.714h3.081v1.897h-3.081v8.233
			c0,0.164,0.009,0.356,0.028,0.575c0.018,0.219,0.086,0.419,0.206,0.602c0.119,0.183,0.303,0.337,0.55,0.465s0.6,0.191,1.059,0.191
			c0.257,0,0.5-0.014,0.729-0.041c0.229-0.027,0.399-0.06,0.509-0.097v2.008c-0.238,0.037-0.536,0.073-0.894,0.11
			c-0.357,0.036-0.774,0.055-1.251,0.055c-1.192,0-2.072-0.205-2.64-0.615c-0.568-0.411-0.853-1.183-0.853-2.314v-9.172h-2.448
			V176.589z"/>
		<path fill="#889398" d="M202.839,176.589v8.884c0,0.33,0.027,0.678,0.083,1.045s0.188,0.697,0.399,0.99
			c0.21,0.293,0.509,0.536,0.894,0.729c0.385,0.192,0.907,0.289,1.567,0.289c0.642,0,1.251-0.119,1.829-0.357
			s1.049-0.633,1.417-1.183c0.293-0.422,0.463-0.871,0.509-1.348c0.045-0.477,0.069-0.89,0.069-1.238v-7.811h2.668v11.222
			c0,0.073,0.004,0.211,0.014,0.412c0.009,0.202,0.018,0.431,0.027,0.688s0.018,0.522,0.027,0.798s0.014,0.505,0.014,0.688h-2.696
			l-0.055-2.365c-0.128,0.238-0.289,0.505-0.481,0.798s-0.454,0.563-0.784,0.811c-0.33,0.248-0.752,0.459-1.265,0.633
			c-0.514,0.174-1.137,0.262-1.871,0.262c-0.862,0-1.604-0.115-2.228-0.344c-0.624-0.229-1.142-0.551-1.554-0.963
			s-0.72-0.907-0.921-1.485c-0.202-0.577-0.302-1.205-0.302-1.884v-9.269H202.839z"/>
		<path fill="#889398" d="M214.886,176.589h2.448v-2.889l2.558-0.825v3.714h3.081v1.897h-3.081v8.233
			c0,0.164,0.009,0.356,0.028,0.575c0.018,0.219,0.086,0.419,0.206,0.602c0.119,0.183,0.303,0.337,0.55,0.465s0.6,0.191,1.059,0.191
			c0.257,0,0.5-0.014,0.729-0.041c0.229-0.027,0.399-0.06,0.509-0.097v2.008c-0.238,0.037-0.536,0.073-0.894,0.11
			c-0.357,0.036-0.774,0.055-1.251,0.055c-1.192,0-2.072-0.205-2.64-0.615c-0.568-0.411-0.853-1.183-0.853-2.314v-9.172h-2.448
			V176.589z"/>
		<path fill="#889398" d="M223.082,176.589h2.448v-2.889l2.558-0.825v3.714h3.081v1.897h-3.081v8.233
			c0,0.164,0.009,0.356,0.028,0.575c0.018,0.219,0.086,0.419,0.206,0.602c0.119,0.183,0.303,0.337,0.55,0.465s0.6,0.191,1.059,0.191
			c0.257,0,0.5-0.014,0.729-0.041c0.229-0.027,0.399-0.06,0.509-0.097v2.008c-0.238,0.037-0.536,0.073-0.894,0.11
			c-0.357,0.036-0.774,0.055-1.251,0.055c-1.192,0-2.072-0.205-2.64-0.615c-0.568-0.411-0.853-1.183-0.853-2.314v-9.172h-2.448
			V176.589z"/>
		<path fill="#889398" d="M236.559,191.468c0.018,0.386,0.083,0.743,0.193,1.073c0.11,0.33,0.289,0.614,0.536,0.853
			s0.573,0.426,0.977,0.563c0.403,0.138,0.908,0.206,1.513,0.206c0.898,0,1.595-0.155,2.09-0.467
			c0.495-0.313,0.857-0.748,1.086-1.307c0.229-0.56,0.366-1.229,0.413-2.008c0.045-0.779,0.068-1.637,0.068-2.571
			c-0.275,0.568-0.628,1.008-1.059,1.319c-0.431,0.313-0.871,0.546-1.32,0.702c-0.45,0.155-0.871,0.247-1.265,0.274
			c-0.395,0.027-0.692,0.042-0.894,0.042c-0.312,0-0.656-0.023-1.031-0.069c-0.376-0.046-0.752-0.128-1.127-0.247
			c-0.376-0.119-0.743-0.289-1.101-0.509c-0.357-0.221-0.683-0.514-0.976-0.881c-0.587-0.696-0.995-1.485-1.224-2.365
			c-0.229-0.88-0.344-1.787-0.344-2.723c0-1.173,0.16-2.195,0.481-3.066c0.32-0.871,0.761-1.596,1.32-2.173
			c0.559-0.578,1.21-1.009,1.953-1.293s1.536-0.427,2.379-0.427c0.697,0,1.288,0.074,1.774,0.221s0.898,0.33,1.238,0.55
			s0.609,0.449,0.812,0.688c0.202,0.238,0.375,0.449,0.522,0.633l0.027-1.897h2.503l-0.055,2.503l-0.028,8.636
			c0,0.825-0.009,1.54-0.027,2.146c-0.019,0.604-0.051,1.128-0.096,1.567c-0.046,0.44-0.115,0.82-0.207,1.142
			c-0.092,0.32-0.202,0.609-0.33,0.866c-0.293,0.55-0.669,0.99-1.127,1.32c-0.458,0.33-0.949,0.578-1.472,0.743
			c-0.522,0.165-1.059,0.274-1.609,0.329c-0.55,0.056-1.063,0.083-1.54,0.083c-0.917,0-1.696-0.068-2.338-0.206
			c-0.642-0.138-1.174-0.316-1.595-0.536c-0.422-0.221-0.752-0.481-0.99-0.784s-0.422-0.619-0.55-0.949
			c-0.129-0.33-0.211-0.665-0.248-1.004c-0.037-0.339-0.064-0.665-0.083-0.977H236.559z M241.413,187.852
			c0.468-0.248,0.857-0.582,1.169-1.004c0.128-0.184,0.252-0.376,0.372-0.578c0.119-0.201,0.22-0.448,0.302-0.742
			c0.083-0.293,0.146-0.65,0.193-1.072c0.045-0.422,0.068-0.944,0.068-1.568c0-0.88-0.092-1.581-0.275-2.104
			c-0.184-0.522-0.449-0.967-0.797-1.334c-0.349-0.367-0.784-0.66-1.307-0.881c-0.522-0.22-1.077-0.33-1.664-0.33
			c-0.825,0-1.481,0.184-1.966,0.551c-0.486,0.367-0.857,0.812-1.114,1.334s-0.426,1.072-0.509,1.65
			c-0.083,0.577-0.124,1.086-0.124,1.526c0,0.531,0.05,1.086,0.151,1.664c0.101,0.577,0.289,1.109,0.563,1.595
			c0.275,0.486,0.66,0.885,1.155,1.196c0.495,0.313,1.137,0.468,1.925,0.468C240.327,188.223,240.946,188.099,241.413,187.852z"/>
		<path fill="#889398" d="M258.479,190.396c-0.092-0.348-0.156-0.688-0.192-1.018c-0.037-0.33-0.055-0.678-0.055-1.045
			c-0.312,0.568-0.656,1.018-1.031,1.348c-0.376,0.33-0.756,0.582-1.142,0.756c-0.385,0.174-0.756,0.284-1.114,0.33
			s-0.683,0.069-0.977,0.069c-0.789,0-1.485-0.106-2.09-0.316c-0.605-0.211-1.114-0.5-1.527-0.866
			c-0.413-0.367-0.725-0.798-0.935-1.293c-0.211-0.495-0.316-1.026-0.316-1.596c0-0.274,0.032-0.586,0.097-0.935
			c0.064-0.349,0.183-0.701,0.357-1.06c0.174-0.357,0.417-0.715,0.729-1.072c0.312-0.357,0.724-0.683,1.237-0.977
			c0.367-0.201,0.77-0.361,1.21-0.481c0.44-0.119,0.88-0.21,1.32-0.274c0.44-0.064,0.857-0.105,1.251-0.124
			c0.394-0.019,0.729-0.027,1.004-0.027c0.33,0,0.624,0.005,0.88,0.014c0.256,0.01,0.586,0.032,0.99,0.068
			c0-0.421-0.005-0.793-0.014-1.113c-0.01-0.321-0.028-0.596-0.055-0.825s-0.074-0.436-0.138-0.619
			c-0.064-0.183-0.161-0.348-0.289-0.495c-0.257-0.348-0.628-0.587-1.114-0.715s-0.912-0.192-1.279-0.192
			c-0.66,0-1.173,0.096-1.54,0.288c-0.367,0.193-0.642,0.418-0.825,0.674c-0.184,0.258-0.298,0.519-0.344,0.784
			c-0.046,0.266-0.069,0.463-0.069,0.592h-2.585c0.037-0.367,0.105-0.774,0.207-1.225c0.101-0.449,0.353-0.911,0.756-1.389
			c0.256-0.293,0.568-0.536,0.935-0.729c0.367-0.192,0.747-0.344,1.141-0.454c0.395-0.11,0.798-0.188,1.21-0.233
			s0.802-0.069,1.169-0.069c0.495,0,0.994,0.041,1.499,0.124c0.504,0.082,0.976,0.206,1.417,0.371
			c0.44,0.165,0.834,0.376,1.183,0.633c0.348,0.257,0.614,0.56,0.797,0.907c0.22,0.422,0.353,0.803,0.399,1.142
			c0.045,0.34,0.069,0.665,0.069,0.977l-0.11,6.601c0,0.056,0.004,0.202,0.014,0.44c0.009,0.238,0.018,0.522,0.027,0.853
			s0.027,0.688,0.055,1.072c0.027,0.386,0.069,0.753,0.124,1.101H258.479z M257.489,183.617c-0.22-0.01-0.486-0.015-0.797-0.015
			c-0.257,0-0.66,0.015-1.21,0.042c-0.55,0.027-1.105,0.128-1.664,0.303c-0.56,0.174-1.05,0.453-1.472,0.839
			c-0.422,0.385-0.632,0.926-0.632,1.622c0,0.221,0.041,0.468,0.124,0.743c0.083,0.274,0.229,0.536,0.44,0.783
			c0.211,0.248,0.5,0.454,0.867,0.619c0.366,0.165,0.843,0.247,1.43,0.247c1.32,0,2.301-0.494,2.943-1.484
			c0.146-0.238,0.261-0.468,0.344-0.688c0.083-0.221,0.142-0.468,0.179-0.743c0.037-0.275,0.064-0.591,0.083-0.949
			c0.018-0.357,0.037-0.774,0.055-1.251C257.938,183.649,257.709,183.625,257.489,183.617z"/>
		<path fill="#889398" d="M265.218,179.394c0-0.477-0.014-0.948-0.042-1.416s-0.06-0.931-0.096-1.389h2.613l0.055,2.668
			c0.128-0.477,0.316-0.881,0.563-1.211s0.527-0.6,0.839-0.812c0.312-0.21,0.633-0.371,0.963-0.48
			c0.33-0.11,0.642-0.184,0.935-0.221c0.385-0.055,0.724-0.082,1.018-0.082c0.293,0,0.55,0.01,0.77,0.027v2.53
			c-0.11-0.029-0.275-0.059-0.495-0.088c-0.092-0.015-0.202-0.022-0.33-0.022c-0.129,0-0.266,0-0.413,0
			c-0.771,0-1.398,0.105-1.884,0.315c-0.486,0.211-0.866,0.504-1.141,0.878c-0.275,0.376-0.468,0.819-0.578,1.331
			c-0.11,0.513-0.165,1.062-0.165,1.646v7.326h-2.613V179.394z"/>
		<path fill="#889398" d="M272.699,176.589h2.448v-2.889l2.558-0.825v3.714h3.08v1.897h-3.08v8.233c0,0.164,0.009,0.356,0.028,0.575
			c0.018,0.219,0.086,0.419,0.206,0.602c0.119,0.183,0.303,0.337,0.55,0.465s0.6,0.191,1.059,0.191c0.257,0,0.5-0.014,0.729-0.041
			c0.229-0.027,0.399-0.06,0.508-0.097v2.008c-0.238,0.037-0.536,0.073-0.894,0.11c-0.357,0.036-0.774,0.055-1.251,0.055
			c-1.192,0-2.072-0.205-2.64-0.615c-0.568-0.411-0.853-1.183-0.853-2.314v-9.172h-2.448V176.589z"/>
	</g>
</g>
<g id="VISUS">
	<g>
		<path fill="#1961AC" d="M219.861,29.845c0,0-19.12-11.519-45.513-7.39c-26.393,4.135-43.387,15.681-43.474,26.482
			c-0.089,10.805,16.171,17.579,34.118,23.067c17.948,5.495,37.876,10.185,36.674,17.646c-1.409,8.759-11.718,15.123-23.844,18.657
			c-38.87,11.316-66.825-9.434-66.825-9.434s16.173,26.383,66.576,16.32c18.941-3.786,36.373-12.489,38.847-27.391
			c2.297-13.878-15.772-19.607-27.881-23.784c-16.19-5.583-41.064-8.386-41.067-17.193c0-8.809,10.757-16.422,27.478-19.292
			C195.37,24.023,219.861,29.845,219.861,29.845z"/>
		<path fill="#889398" d="M327.218,115.92c0,0,10.49-19.705,4.97-45.842c-5.527-26.134-17.955-42.498-28.754-42.01
			c-10.787,0.482-16.693,17.078-21.224,35.29c-4.537,18.219-8.161,38.364-15.68,37.563c-8.818-0.945-15.723-10.906-19.894-22.823
			c-13.361-38.215,5.881-67.233,5.881-67.233s-25.489,17.55-12.771,67.346c4.779,18.717,14.401,35.664,29.409,37.344
			c13.98,1.561,18.747-16.79,22.276-29.101c4.719-16.467,6.197-41.453,14.993-41.921c8.796-0.471,16.97,9.873,20.723,26.417
			C331.735,91.154,327.218,115.92,327.218,115.92z"/>
		<path fill="#889398" d="M453.64,29.845c0,0-19.12-11.519-45.513-7.39c-26.393,4.135-43.387,15.681-43.474,26.482
			c-0.087,10.805,16.171,17.579,34.118,23.067c17.947,5.495,37.879,10.185,36.675,17.646c-1.406,8.759-11.719,15.123-23.845,18.657
			c-38.866,11.316-66.822-9.434-66.822-9.434s16.173,26.383,66.573,16.32c18.943-3.786,36.379-12.489,38.848-27.391
			c2.3-13.878-15.77-19.607-27.881-23.784c-16.19-5.583-41.064-8.386-41.067-17.193c0-8.809,10.757-16.422,27.478-19.292
			C429.149,24.023,453.64,29.845,453.64,29.845z"/>
		<path fill="#889398" d="M99.72,10.864c0,6.001-3.873,10.867-8.656,10.867c-4.779,0-8.651-4.866-8.651-10.867
			C82.413,4.869,86.285,0,91.064,0C95.848,0,99.72,4.869,99.72,10.864z"/>
		<path fill="#1961AC" d="M91.124,115.92c0,0,10.488-19.705,4.968-45.842c-5.525-26.134-17.955-42.498-28.75-42.01
			c-10.792,0.482-16.695,17.078-21.228,35.29c-4.535,18.219-8.164,38.364-15.678,37.563c-8.818-0.945-15.725-10.906-19.894-22.823
			c-13.361-38.215,5.878-67.233,5.878-67.233S-9.065,28.414,3.653,78.21c4.784,18.717,14.401,35.664,29.409,37.344
			c13.98,1.561,18.744-16.79,22.276-29.101C60.057,69.986,61.535,45,70.329,44.532c8.798-0.471,16.972,9.873,20.723,26.417
			C95.639,91.154,91.124,115.92,91.124,115.92z"/>
	</g>
</g>
</svg>
